<svg width="1200" height="1625" viewBox="0 0 1200 1625" fill="none" xmlns="http://www.w3.org/2000/svg">
<path d="M136.09 896V352.48H324.9L433.13 674.8H438.66L546.89 352.48H734.91V896H602.98V542.87H597.45L479.74 896H387.31L270.39 542.87H264.07V896H136.09Z" fill="white"/>
<path d="M136.09 896H131.09V901H136.09V896ZM136.09 352.48V347.48H131.09V352.48H136.09ZM324.9 352.48L329.64 350.888L328.495 347.48H324.9V352.48ZM433.13 674.8L428.39 676.392L429.535 679.8H433.13V674.8ZM438.66 674.8V679.8H442.255L443.4 676.392L438.66 674.8ZM546.89 352.48V347.48H543.295L542.15 350.888L546.89 352.48ZM734.91 352.48H739.91V347.48H734.91V352.48ZM734.91 896V901H739.91V896H734.91ZM602.98 896H597.98V901H602.98V896ZM602.98 542.87H607.98V537.87H602.98V542.87ZM597.45 542.87V537.87H593.846L592.707 541.289L597.45 542.87ZM479.74 896V901H483.344L484.483 897.581L479.74 896ZM387.31 896L382.563 897.572L383.699 901H387.31V896ZM270.39 542.87L275.137 541.298L274.001 537.87H270.39V542.87ZM264.07 542.87V537.87H259.07V542.87H264.07ZM264.07 896V901H269.07V896H264.07ZM136.09 896H141.09V352.48H136.09H131.09V896H136.09ZM136.09 352.48V357.48H324.9V352.48V347.48H136.09V352.48ZM324.9 352.48L320.16 354.072L428.39 676.392L433.13 674.8L437.87 673.208L329.64 350.888L324.9 352.48ZM433.13 674.8V679.8H438.66V674.8V669.8H433.13V674.8ZM438.66 674.8L443.4 676.392L551.63 354.072L546.89 352.48L542.15 350.888L433.92 673.208L438.66 674.8ZM546.89 352.48V357.48H734.91V352.48V347.48H546.89V352.48ZM734.91 352.48H729.91V896H734.91H739.91V352.48H734.91ZM734.91 896V891H602.98V896V901H734.91V896ZM602.98 896H607.98V542.87H602.98H597.98V896H602.98ZM602.98 542.87V537.87H597.45V542.87V547.87H602.98V542.87ZM597.45 542.87L592.707 541.289L474.997 894.419L479.74 896L484.483 897.581L602.193 544.451L597.45 542.87ZM479.74 896V891H387.31V896V901H479.74V896ZM387.31 896L392.057 894.428L275.137 541.298L270.39 542.87L265.643 544.442L382.563 897.572L387.31 896ZM270.39 542.87V537.87H264.07V542.87V547.87H270.39V542.87ZM264.07 542.87H259.07V896H264.07H269.07V542.87H264.07ZM264.07 896V891H136.09V896V901H264.07V896Z" fill="black"/>
<path d="M602.96 1291V768.12H735.2V974.84H773.96L916.84 768.12H1059.72L881.12 1016.64L1062 1291H913.8L773.96 1075.16H735.2V1291H602.96Z" fill="white"/>
<path d="M602.96 1291H597.96V1296H602.96V1291ZM602.96 768.12V763.12H597.96V768.12H602.96ZM735.2 768.12H740.2V763.12H735.2V768.12ZM735.2 974.84H730.2V979.84H735.2V974.84ZM773.96 974.84V979.84H776.582L778.073 977.683L773.96 974.84ZM916.84 768.12V763.12H914.218L912.727 765.277L916.84 768.12ZM1059.72 768.12L1063.78 771.038L1069.47 763.12H1059.72V768.12ZM881.12 1016.64L877.06 1013.72L875.051 1016.52L876.946 1019.39L881.12 1016.64ZM1062 1291V1296H1071.29L1066.17 1288.25L1062 1291ZM913.8 1291L909.604 1293.72L911.082 1296H913.8V1291ZM773.96 1075.16L778.156 1072.44L776.678 1070.16H773.96V1075.16ZM735.2 1075.16V1070.16H730.2V1075.16H735.2ZM735.2 1291V1296H740.2V1291H735.2ZM602.96 1291H607.96V768.12H602.96H597.96V1291H602.96ZM602.96 768.12V773.12H735.2V768.12V763.12H602.96V768.12ZM735.2 768.12H730.2V974.84H735.2H740.2V768.12H735.2ZM735.2 974.84V979.84H773.96V974.84V969.84H735.2V974.84ZM773.96 974.84L778.073 977.683L920.953 770.963L916.84 768.12L912.727 765.277L769.847 971.997L773.96 974.84ZM916.84 768.12V773.12H1059.72V768.12V763.12H916.84V768.12ZM1059.72 768.12L1055.66 765.202L877.06 1013.72L881.12 1016.64L885.18 1019.56L1063.78 771.038L1059.72 768.12ZM881.12 1016.64L876.946 1019.39L1057.83 1293.75L1062 1291L1066.17 1288.25L885.294 1013.89L881.12 1016.64ZM1062 1291V1286H913.8V1291V1296H1062V1291ZM913.8 1291L917.996 1288.28L778.156 1072.44L773.96 1075.16L769.764 1077.88L909.604 1293.72L913.8 1291ZM773.96 1075.16V1070.16H735.2V1075.16V1080.16H773.96V1075.16ZM735.2 1075.16H730.2V1291H735.2H740.2V1075.16H735.2ZM735.2 1291V1286H602.96V1291V1296H735.2V1291Z" fill="black"/>
<path d="M1200 1421H597V1358H598V1296H1075V764H1200V1421ZM740 346H125V901H0V221H740V346Z" fill="#5EDC1F"/>
</svg>
